<svg width="830" height="146" viewBox="0 0 830 146" fill="none" xmlns="http://www.w3.org/2000/svg">
<rect width="830" height="146" fill="#F22F46"/>
<path d="M83.08 61.16C83.08 66.6 78.6 71.08 73.16 71.08C67.72 71.08 63.24 66.6 63.24 61.16C63.24 55.72 67.72 51.24 73.16 51.24C78.6 51.24 83.08 55.72 83.08 61.16ZM73.16 74.92C67.72 74.92 63.24 79.4 63.24 84.84C63.24 90.28 67.72 94.76 73.16 94.76C78.6 94.76 83.08 90.28 83.08 84.84C83.08 79.4 78.6 74.92 73.16 74.92ZM133 73C133 99.56 111.56 121 85 121C58.44 121 37 99.56 37 73C37 46.44 58.44 25 85 25C111.56 25 133 46.44 133 73ZM120.2 73C120.2 53.48 104.52 37.8 85 37.8C65.48 37.8 49.8 53.48 49.8 73C49.8 92.52 65.48 108.2 85 108.2C104.52 108.2 120.2 92.52 120.2 73ZM96.84 74.92C91.4 74.92 86.92 79.4 86.92 84.84C86.92 90.28 91.4 94.76 96.84 94.76C102.28 94.76 106.76 90.28 106.76 84.84C106.76 79.4 102.28 74.92 96.84 74.92ZM96.84 51.24C91.4 51.24 86.92 55.72 86.92 61.16C86.92 66.6 91.4 71.08 96.84 71.08C102.28 71.08 106.76 66.6 106.76 61.16C106.76 55.72 102.28 51.24 96.84 51.24Z" fill="white"/>
<path d="M149.345 86L152.618 66.3636H158.69L158.089 69.9432H158.294C158.865 68.6477 159.611 67.6847 160.531 67.054C161.452 66.4148 162.449 66.0952 163.523 66.0952C163.813 66.0952 164.102 66.1165 164.392 66.1591C164.69 66.1932 164.972 66.2443 165.236 66.3125L164.315 71.7585C164.026 71.6477 163.646 71.5668 163.178 71.5156C162.709 71.456 162.283 71.4261 161.899 71.4261C161.158 71.4261 160.467 71.5923 159.828 71.9247C159.197 72.2486 158.661 72.7045 158.217 73.2926C157.783 73.8722 157.497 74.554 157.361 75.3381L155.597 86H149.345ZM172.606 86.3707C170.552 86.3707 168.847 85.9659 167.492 85.1562C166.146 84.3381 165.2 83.1747 164.654 81.6662C164.109 80.1491 164.011 78.3466 164.36 76.2585C164.701 74.2301 165.396 72.4574 166.444 70.9403C167.501 69.4148 168.83 68.2301 170.433 67.3864C172.035 66.5341 173.82 66.108 175.789 66.108C177.187 66.108 178.427 66.3253 179.509 66.7599C180.592 67.1946 181.487 67.8423 182.194 68.7031C182.901 69.5554 183.383 70.6037 183.638 71.848C183.894 73.0923 183.886 74.5199 183.613 76.1307L183.37 77.6903H166.316L166.891 74.0597H178.141C178.244 73.3949 178.188 72.8026 177.975 72.2827C177.762 71.7628 177.417 71.358 176.94 71.0682C176.471 70.7699 175.896 70.6207 175.214 70.6207C174.523 70.6207 173.876 70.7827 173.271 71.1065C172.674 71.4219 172.167 71.848 171.749 72.3849C171.332 72.9219 171.059 73.527 170.931 74.2003L170.254 77.9205C170.117 78.7472 170.156 79.4545 170.369 80.0426C170.582 80.6307 170.948 81.0824 171.468 81.3977C171.988 81.7045 172.657 81.858 173.475 81.858C174.021 81.858 174.532 81.7855 175.009 81.6406C175.487 81.4872 175.913 81.2614 176.288 80.9631C176.671 80.6562 176.982 80.2855 177.221 79.8509L182.923 80.017C182.462 81.304 181.751 82.4247 180.788 83.3793C179.825 84.3253 178.648 85.0625 177.259 85.5909C175.879 86.1108 174.327 86.3707 172.606 86.3707ZM190.654 86.3324C189.409 86.3324 188.336 86.1236 187.432 85.706C186.537 85.2798 185.881 84.6364 185.463 83.7756C185.054 82.9148 184.956 81.8409 185.169 80.554C185.357 79.4631 185.702 78.5469 186.205 77.8054C186.716 77.0554 187.343 76.446 188.084 75.9773C188.834 75.5085 189.669 75.1506 190.59 74.9034C191.51 74.6562 192.473 74.4901 193.479 74.4048C194.604 74.3026 195.516 74.1918 196.215 74.0724C196.922 73.9531 197.451 73.7869 197.8 73.5739C198.15 73.3523 198.363 73.0455 198.439 72.6534V72.5895C198.542 71.9332 198.401 71.4261 198.017 71.0682C197.634 70.7102 197.059 70.5312 196.292 70.5312C195.473 70.5312 194.775 70.7102 194.195 71.0682C193.615 71.4261 193.211 71.9205 192.98 72.5511L187.253 72.3466C187.611 71.1534 188.225 70.0881 189.094 69.1506C189.963 68.2045 191.067 67.4631 192.405 66.9261C193.752 66.3807 195.307 66.108 197.071 66.108C198.316 66.108 199.441 66.2571 200.446 66.5554C201.452 66.8452 202.3 67.2713 202.99 67.8338C203.689 68.3878 204.188 69.0696 204.486 69.8793C204.784 70.6889 204.848 71.6136 204.678 72.6534L202.441 86H196.56L197.02 83.2642H196.867C196.407 83.929 195.865 84.4915 195.243 84.9517C194.63 85.4119 193.939 85.7571 193.172 85.9872C192.405 86.2173 191.566 86.3324 190.654 86.3324ZM193.287 82.2415C193.944 82.2415 194.566 82.1051 195.154 81.8324C195.742 81.5597 196.236 81.1847 196.637 80.7074C197.046 80.2216 197.306 79.6591 197.417 79.0199L197.711 77.1534C197.532 77.2472 197.306 77.3324 197.033 77.4091C196.76 77.4858 196.471 77.5582 196.164 77.6264C195.857 77.6861 195.542 77.7457 195.218 77.8054C194.902 77.8565 194.6 77.9034 194.31 77.946C193.696 78.0398 193.164 78.1847 192.712 78.3807C192.26 78.5767 191.898 78.8324 191.625 79.1477C191.361 79.4545 191.199 79.821 191.14 80.2472C191.037 80.8864 191.186 81.3807 191.587 81.7301C191.988 82.071 192.554 82.2415 193.287 82.2415ZM215.378 86.3707C213.307 86.3707 211.598 85.9446 210.252 85.0923C208.914 84.2401 207.976 83.0554 207.439 81.5384C206.902 80.0128 206.804 78.2486 207.145 76.2457C207.469 74.2344 208.155 72.4702 209.203 70.9531C210.252 69.4276 211.59 68.2386 213.218 67.3864C214.846 66.5341 216.686 66.108 218.74 66.108C220.556 66.108 222.081 66.4361 223.317 67.0923C224.561 67.7486 225.461 68.6776 226.015 69.8793C226.577 71.0724 226.743 72.4744 226.513 74.0852H220.671C220.722 73.0881 220.517 72.304 220.057 71.733C219.597 71.1534 218.928 70.8636 218.05 70.8636C217.309 70.8636 216.627 71.0682 216.005 71.4773C215.391 71.8778 214.867 72.4744 214.432 73.267C214.006 74.0511 213.699 75.0227 213.512 76.1818C213.324 77.3409 213.311 78.321 213.473 79.1222C213.644 79.9148 213.963 80.5156 214.432 80.9247C214.909 81.3253 215.515 81.5256 216.248 81.5256C216.827 81.5256 217.364 81.402 217.858 81.1548C218.353 80.9077 218.783 80.5455 219.15 80.0682C219.516 79.5824 219.801 78.9943 220.006 78.304H225.836C225.503 79.9318 224.86 81.3509 223.905 82.5611C222.959 83.7628 221.762 84.7003 220.313 85.3736C218.864 86.0384 217.219 86.3707 215.378 86.3707ZM242.1 66.3636L241.32 70.9659H228.933L229.712 66.3636H242.1ZM233.075 61.6591H239.326L236.309 79.8253C236.249 80.2088 236.258 80.5199 236.335 80.7585C236.42 80.9886 236.573 81.1548 236.795 81.2571C237.025 81.3509 237.306 81.3977 237.638 81.3977C237.869 81.3977 238.124 81.3722 238.406 81.321C238.687 81.2699 238.9 81.2315 239.045 81.206L239.249 85.7188C238.917 85.8125 238.469 85.919 237.907 86.0384C237.353 86.1662 236.705 86.2472 235.964 86.2812C234.464 86.3409 233.224 86.1662 232.244 85.7571C231.272 85.3395 230.586 84.6918 230.185 83.8139C229.793 82.9361 229.717 81.8366 229.955 80.5156L233.075 61.6591ZM256.204 72.9986L255.424 77.8182H243.318L244.098 72.9986H256.204ZM266.626 74.8011L264.76 86H258.509L261.781 66.3636H267.726L267.138 69.9688H267.355C267.969 68.767 268.859 67.8253 270.027 67.1435C271.195 66.4531 272.507 66.108 273.964 66.108C275.337 66.108 276.483 66.4148 277.403 67.0284C278.324 67.642 278.976 68.5028 279.359 69.6108C279.743 70.7102 279.807 72.0014 279.551 73.4844L277.455 86H271.203L273.082 74.7116C273.27 73.6293 273.138 72.7812 272.686 72.1676C272.243 71.5455 271.518 71.2344 270.513 71.2344C269.857 71.2344 269.256 71.3793 268.71 71.669C268.173 71.9503 267.722 72.3551 267.355 72.8835C266.997 73.4119 266.754 74.0511 266.626 74.8011ZM286.771 86.3324C285.527 86.3324 284.453 86.1236 283.549 85.706C282.654 85.2798 281.998 84.6364 281.581 83.7756C281.172 82.9148 281.074 81.8409 281.287 80.554C281.474 79.4631 281.819 78.5469 282.322 77.8054C282.833 77.0554 283.46 76.446 284.201 75.9773C284.951 75.5085 285.787 75.1506 286.707 74.9034C287.627 74.6562 288.591 74.4901 289.596 74.4048C290.721 74.3026 291.633 74.1918 292.332 74.0724C293.039 73.9531 293.568 73.7869 293.917 73.5739C294.267 73.3523 294.48 73.0455 294.556 72.6534V72.5895C294.659 71.9332 294.518 71.4261 294.135 71.0682C293.751 70.7102 293.176 70.5312 292.409 70.5312C291.591 70.5312 290.892 70.7102 290.312 71.0682C289.733 71.4261 289.328 71.9205 289.098 72.5511L283.37 72.3466C283.728 71.1534 284.342 70.0881 285.211 69.1506C286.081 68.2045 287.184 67.4631 288.522 66.9261C289.869 66.3807 291.424 66.108 293.189 66.108C294.433 66.108 295.558 66.2571 296.564 66.5554C297.569 66.8452 298.417 67.2713 299.108 67.8338C299.806 68.3878 300.305 69.0696 300.603 69.8793C300.902 70.6889 300.966 71.6136 300.795 72.6534L298.558 86H292.677L293.137 83.2642H292.984C292.524 83.929 291.983 84.4915 291.36 84.9517C290.747 85.4119 290.056 85.7571 289.289 85.9872C288.522 86.2173 287.683 86.3324 286.771 86.3324ZM289.404 82.2415C290.061 82.2415 290.683 82.1051 291.271 81.8324C291.859 81.5597 292.353 81.1847 292.754 80.7074C293.163 80.2216 293.423 79.6591 293.534 79.0199L293.828 77.1534C293.649 77.2472 293.423 77.3324 293.15 77.4091C292.877 77.4858 292.588 77.5582 292.281 77.6264C291.974 77.6861 291.659 77.7457 291.335 77.8054C291.02 77.8565 290.717 77.9034 290.427 77.946C289.814 78.0398 289.281 78.1847 288.829 78.3807C288.377 78.5767 288.015 78.8324 287.743 79.1477C287.478 79.4545 287.316 79.821 287.257 80.2472C287.154 80.8864 287.304 81.3807 287.704 81.7301C288.105 82.071 288.672 82.2415 289.404 82.2415ZM316.737 66.3636L315.957 70.9659H303.569L304.349 66.3636H316.737ZM307.711 61.6591H313.963L310.946 79.8253C310.886 80.2088 310.895 80.5199 310.971 80.7585C311.056 80.9886 311.21 81.1548 311.431 81.2571C311.662 81.3509 311.943 81.3977 312.275 81.3977C312.505 81.3977 312.761 81.3722 313.042 81.321C313.324 81.2699 313.537 81.2315 313.681 81.206L313.886 85.7188C313.554 85.8125 313.106 85.919 312.544 86.0384C311.99 86.1662 311.342 86.2472 310.6 86.2812C309.1 86.3409 307.86 86.1662 306.88 85.7571C305.909 85.3395 305.223 84.6918 304.822 83.8139C304.43 82.9361 304.353 81.8366 304.592 80.5156L307.711 61.6591ZM316.654 86L319.926 66.3636H326.178L322.905 86H316.654ZM323.493 64.0625C322.607 64.0625 321.887 63.7685 321.333 63.1804C320.779 62.5923 320.561 61.8892 320.681 61.071C320.8 60.2443 321.218 59.5412 321.934 58.9616C322.65 58.3821 323.446 58.0923 324.324 58.0923C325.211 58.0923 325.922 58.3821 326.459 58.9616C327.005 59.5412 327.218 60.2443 327.098 61.071C326.996 61.8892 326.587 62.5923 325.871 63.1804C325.164 63.7685 324.371 64.0625 323.493 64.0625ZM349.205 66.3636L339.195 86H332.036L328.585 66.3636H334.938L336.319 79.8892H336.523L342.391 66.3636H349.205ZM356.825 86.3707C354.771 86.3707 353.066 85.9659 351.711 85.1562C350.364 84.3381 349.418 83.1747 348.873 81.6662C348.327 80.1491 348.229 78.3466 348.579 76.2585C348.92 74.2301 349.614 72.4574 350.663 70.9403C351.719 69.4148 353.049 68.2301 354.651 67.3864C356.254 66.5341 358.039 66.108 360.008 66.108C361.406 66.108 362.646 66.3253 363.728 66.7599C364.81 67.1946 365.705 67.8423 366.413 68.7031C367.12 69.5554 367.602 70.6037 367.857 71.848C368.113 73.0923 368.104 74.5199 367.832 76.1307L367.589 77.6903H350.535L351.11 74.0597H362.36C362.462 73.3949 362.407 72.8026 362.194 72.2827C361.981 71.7628 361.636 71.358 361.158 71.0682C360.69 70.7699 360.114 70.6207 359.433 70.6207C358.742 70.6207 358.094 70.7827 357.489 71.1065C356.893 71.4219 356.386 71.848 355.968 72.3849C355.55 72.9219 355.278 73.527 355.15 74.2003L354.472 77.9205C354.336 78.7472 354.374 79.4545 354.587 80.0426C354.8 80.6307 355.167 81.0824 355.687 81.3977C356.207 81.7045 356.876 81.858 357.694 81.858C358.239 81.858 358.751 81.7855 359.228 81.6406C359.705 81.4872 360.131 81.2614 360.506 80.9631C360.89 80.6562 361.201 80.2855 361.44 79.8509L367.141 80.017C366.681 81.304 365.969 82.4247 365.006 83.3793C364.043 84.3253 362.867 85.0625 361.478 85.5909C360.097 86.1108 358.546 86.3707 356.825 86.3707ZM384.103 72.9986L383.323 77.8182H371.216L371.996 72.9986H384.103Z" fill="white"/>
<path d="M467.515 52.5051C467.306 52.2956 467.096 52.0861 466.887 52.0861H455.783C455.574 52.0861 455.155 52.2956 455.155 52.7146V59.2092C455.155 59.4187 455.364 59.8377 455.783 59.8377H466.887C467.096 59.8377 467.515 59.6282 467.515 59.2092V52.5051Z" fill="white"/>
<path d="M445.308 61.5137H466.677C466.887 61.5137 467.096 61.9327 467.096 62.1422V90.0058C467.096 90.4248 466.677 90.6343 466.468 90.6343H455.783C455.364 90.6343 455.155 90.2153 455.155 90.0058V63.6087L447.194 90.0058C447.194 90.4248 446.775 90.6343 446.565 90.6343H437.766C437.557 90.6343 437.138 90.2153 437.138 90.0058L435.462 84.3492L433.576 78.2737L429.805 90.0058C429.805 90.4248 429.386 90.6343 429.177 90.6343H420.378C420.168 90.6343 419.749 90.2153 419.749 90.0058L411.788 63.6087V70.3127C411.788 70.7317 411.369 70.9412 411.16 70.9412H405.084V78.0642C405.084 80.1592 406.132 80.9972 408.017 80.9972C408.855 80.9972 409.903 80.7877 410.95 80.3687C411.16 80.1592 411.579 80.3687 411.579 80.7877V89.1678C409.693 90.2153 406.97 90.8438 404.037 90.8438C397.123 90.8438 393.352 87.7012 393.352 80.7877V70.9412H390.629C390.21 70.9412 390 70.5222 390 70.3127V62.3517C390 61.9327 390.419 61.7232 390.629 61.7232H393.352V56.0666C393.352 55.6476 393.562 55.4381 393.981 55.4381L404.456 52.0861C404.875 51.8766 405.294 52.2956 405.294 52.5051V61.5137H422.054C422.263 61.5137 422.682 61.9327 422.682 62.1422L423.939 67.3797L425.196 72.6172L425.406 73.2457L425.615 72.6172L428.758 62.1422C428.758 61.7232 429.177 61.5137 429.386 61.5137H437.766C437.976 61.5137 438.395 61.9327 438.395 62.1422L441.747 73.2457L441.956 72.6172L444.68 62.1422C444.68 61.7232 445.099 61.5137 445.308 61.5137Z" fill="white"/>
<path d="M470.029 52.0861H480.714C481.133 52.0861 481.342 52.2956 481.342 52.5051V89.7963C481.342 90.2153 480.923 90.4248 480.714 90.4248H470.029C469.61 90.4248 469.401 90.0058 469.401 89.7963V52.7146C469.401 52.2956 469.82 52.0861 470.029 52.0861Z" fill="white"/>
<path d="M483.856 52.0861H494.96C495.379 52.0861 495.588 52.2956 495.588 52.5051V59.2092C495.588 59.6282 495.169 59.8377 494.96 59.8377H483.856C483.437 59.8377 483.228 59.4187 483.228 59.2092V52.7146C483.228 52.2956 483.647 52.0861 483.856 52.0861Z" fill="white"/>
<path d="M484.066 61.5137H494.75C495.169 61.5137 495.379 61.9327 495.379 62.1422V89.5867C495.379 90.0057 494.96 90.2153 494.75 90.2153H484.066C483.647 90.2153 483.437 89.7962 483.437 89.5867V62.1422C483.437 61.7232 483.856 61.5137 484.066 61.5137Z" fill="white"/>
<path fill-rule="evenodd" clip-rule="evenodd" d="M528.48 75.7597C528.48 83.7207 521.776 90.6343 512.348 90.6343C503.13 90.6343 496.426 83.7207 496.426 75.7597C496.426 67.7987 503.13 60.8852 512.558 60.8852C521.776 60.8852 528.48 67.7987 528.48 75.7597ZM517.167 75.9692C517.167 73.0362 515.072 70.7317 512.558 70.9412C509.834 70.9412 507.949 73.2457 507.949 75.9692C507.949 78.6927 510.044 80.9972 512.558 80.9972C515.281 80.9972 517.167 78.6927 517.167 75.9692Z" fill="white"/>
<path d="M548.06 72.9986L547.28 77.8182H535.173L535.953 72.9986H548.06ZM572.647 66.3636L562.637 86H555.478L552.026 66.3636H558.38L559.76 79.8892H559.965L565.833 66.3636H572.647ZM571.771 86L575.044 66.3636H581.295L578.022 86H571.771ZM578.61 64.0625C577.724 64.0625 577.004 63.7685 576.45 63.1804C575.896 62.5923 575.679 61.8892 575.798 61.071C575.917 60.2443 576.335 59.5412 577.051 58.9616C577.767 58.3821 578.564 58.0923 579.441 58.0923C580.328 58.0923 581.039 58.3821 581.576 58.9616C582.122 59.5412 582.335 60.2443 582.216 61.071C582.113 61.8892 581.704 62.5923 580.988 63.1804C580.281 63.7685 579.488 64.0625 578.61 64.0625ZM589.148 86.2812C587.699 86.2812 586.442 85.9062 585.376 85.1562C584.311 84.4062 583.548 83.2812 583.088 81.7812C582.636 80.2812 582.594 78.419 582.96 76.1946C583.344 73.8849 584.026 71.9844 585.006 70.4929C585.986 69.0014 587.128 67.8977 588.432 67.1818C589.744 66.4659 591.082 66.108 592.446 66.108C593.477 66.108 594.33 66.2869 595.003 66.6449C595.685 66.9943 596.217 67.446 596.601 68C596.984 68.554 597.249 69.1293 597.393 69.7259H597.534L599.183 59.8182H605.435L601.088 86H594.901L595.425 82.8168H595.233C594.866 83.4219 594.398 83.9886 593.827 84.517C593.256 85.0455 592.578 85.4716 591.794 85.7955C591.018 86.1193 590.136 86.2812 589.148 86.2812ZM592.101 81.4105C592.859 81.4105 593.545 81.1974 594.159 80.7713C594.773 80.3366 595.288 79.7273 595.706 78.9432C596.132 78.1591 596.43 77.2386 596.601 76.1818C596.78 75.108 596.788 74.1832 596.626 73.4077C596.464 72.6321 596.145 72.0355 595.668 71.6179C595.199 71.2003 594.581 70.9915 593.814 70.9915C593.047 70.9915 592.361 71.2045 591.756 71.6307C591.151 72.0568 590.648 72.6577 590.247 73.4332C589.847 74.2088 589.557 75.125 589.378 76.1818C589.207 77.2386 589.19 78.1591 589.327 78.9432C589.472 79.7273 589.774 80.3366 590.234 80.7713C590.703 81.1974 591.325 81.4105 592.101 81.4105ZM614.192 86.3707C612.138 86.3707 610.433 85.9659 609.078 85.1562C607.732 84.3381 606.786 83.1747 606.24 81.6662C605.695 80.1491 605.597 78.3466 605.946 76.2585C606.287 74.2301 606.982 72.4574 608.03 70.9403C609.087 69.4148 610.416 68.2301 612.018 67.3864C613.621 66.5341 615.406 66.108 617.375 66.108C618.773 66.108 620.013 66.3253 621.095 66.7599C622.178 67.1946 623.072 67.8423 623.78 68.7031C624.487 69.5554 624.969 70.6037 625.224 71.848C625.48 73.0923 625.472 74.5199 625.199 76.1307L624.956 77.6903H607.902L608.477 74.0597H619.727C619.83 73.3949 619.774 72.8026 619.561 72.2827C619.348 71.7628 619.003 71.358 618.526 71.0682C618.057 70.7699 617.482 70.6207 616.8 70.6207C616.109 70.6207 615.462 70.7827 614.857 71.1065C614.26 71.4219 613.753 71.848 613.335 72.3849C612.918 72.9219 612.645 73.527 612.517 74.2003L611.839 77.9205C611.703 78.7472 611.741 79.4545 611.955 80.0426C612.168 80.6307 612.534 81.0824 613.054 81.3977C613.574 81.7045 614.243 81.858 615.061 81.858C615.607 81.858 616.118 81.7855 616.595 81.6406C617.072 81.4872 617.499 81.2614 617.874 80.9631C618.257 80.6562 618.568 80.2855 618.807 79.8509L624.509 80.017C624.048 81.304 623.337 82.4247 622.374 83.3793C621.411 84.3253 620.234 85.0625 618.845 85.5909C617.464 86.1108 615.913 86.3707 614.192 86.3707ZM635.909 86.3707C633.838 86.3707 632.129 85.9446 630.782 85.0923C629.444 84.2401 628.502 83.0511 627.957 81.5256C627.412 80 627.305 78.2273 627.637 76.2074C627.97 74.196 628.656 72.4318 629.696 70.9148C630.735 69.3977 632.065 68.2173 633.684 67.3736C635.304 66.5298 637.14 66.108 639.194 66.108C641.257 66.108 642.957 66.5341 644.295 67.3864C645.642 68.2386 646.588 69.4276 647.133 70.9531C647.687 72.4787 647.798 74.2557 647.466 76.2841C647.133 78.2955 646.443 80.0597 645.395 81.5767C644.346 83.0852 643.017 84.2614 641.406 85.1051C639.795 85.9489 637.963 86.3707 635.909 86.3707ZM636.612 81.6534C637.379 81.6534 638.065 81.4233 638.67 80.9631C639.284 80.5028 639.799 79.8594 640.217 79.0327C640.635 78.206 640.933 77.2472 641.112 76.1562C641.291 75.0824 641.308 74.1406 641.163 73.331C641.027 72.5128 640.737 71.8778 640.294 71.4261C639.85 70.9659 639.25 70.7358 638.491 70.7358C637.724 70.7358 637.034 70.9702 636.42 71.4389C635.806 71.8991 635.291 72.5426 634.873 73.3693C634.464 74.1875 634.17 75.1463 633.991 76.2457C633.812 77.3196 633.791 78.2614 633.927 79.071C634.064 79.8807 634.358 80.5156 634.809 80.9759C635.261 81.4276 635.862 81.6534 636.612 81.6534ZM663.759 72.9986L662.979 77.8182H650.873L651.652 72.9986H663.759ZM669.694 86L667.853 66.3636H674.13L674.68 78.9432H674.846L679.781 66.3636H685.904L686.722 78.8537H686.888L691.555 66.3636H697.832L689.433 86H682.746L681.57 74.5582H681.353L676.393 86H669.694ZM705.774 86.3707C703.72 86.3707 702.015 85.9659 700.66 85.1562C699.314 84.3381 698.368 83.1747 697.822 81.6662C697.277 80.1491 697.179 78.3466 697.528 76.2585C697.869 74.2301 698.564 72.4574 699.612 70.9403C700.669 69.4148 701.998 68.2301 703.6 67.3864C705.203 66.5341 706.988 66.108 708.957 66.108C710.355 66.108 711.595 66.3253 712.677 66.7599C713.76 67.1946 714.654 67.8423 715.362 68.7031C716.069 69.5554 716.551 70.6037 716.806 71.848C717.062 73.0923 717.054 74.5199 716.781 76.1307L716.538 77.6903H699.484L700.059 74.0597H711.309C711.412 73.3949 711.356 72.8026 711.143 72.2827C710.93 71.7628 710.585 71.358 710.108 71.0682C709.639 70.7699 709.064 70.6207 708.382 70.6207C707.691 70.6207 707.044 70.7827 706.439 71.1065C705.842 71.4219 705.335 71.848 704.917 72.3849C704.5 72.9219 704.227 73.527 704.099 74.2003L703.422 77.9205C703.285 78.7472 703.324 79.4545 703.537 80.0426C703.75 80.6307 704.116 81.0824 704.636 81.3977C705.156 81.7045 705.825 81.858 706.643 81.858C707.189 81.858 707.7 81.7855 708.177 81.6406C708.654 81.4872 709.081 81.2614 709.456 80.9631C709.839 80.6562 710.15 80.2855 710.389 79.8509L716.091 80.017C715.63 81.304 714.919 82.4247 713.956 83.3793C712.993 84.3253 711.816 85.0625 710.427 85.5909C709.047 86.1108 707.495 86.3707 705.774 86.3707ZM718.337 86L722.684 59.8182H728.935L727.312 69.7259H727.44C727.781 69.1293 728.232 68.554 728.795 68C729.366 67.446 730.052 66.9943 730.853 66.6449C731.654 66.2869 732.57 66.108 733.602 66.108C734.965 66.108 736.18 66.4659 737.245 67.1818C738.31 67.8977 739.086 69.0014 739.572 70.4929C740.058 71.9844 740.109 73.8849 739.725 76.1946C739.359 78.419 738.698 80.2812 737.744 81.7812C736.789 83.2812 735.651 84.4062 734.33 85.1562C733.018 85.9062 731.637 86.2812 730.188 86.2812C729.2 86.2812 728.369 86.1193 727.695 85.7955C727.031 85.4716 726.498 85.0455 726.097 84.517C725.705 83.9886 725.433 83.4219 725.279 82.8168H725.036L724.525 86H718.337ZM726.097 76.1818C725.927 77.2386 725.918 78.1591 726.072 78.9432C726.234 79.7273 726.545 80.3366 727.005 80.7713C727.474 81.1974 728.092 81.4105 728.859 81.4105C729.626 81.4105 730.312 81.1974 730.917 80.7713C731.522 80.3366 732.029 79.7273 732.438 78.9432C732.847 78.1591 733.137 77.2386 733.308 76.1818C733.478 75.125 733.487 74.2088 733.333 73.4332C733.188 72.6577 732.886 72.0568 732.425 71.6307C731.965 71.2045 731.347 70.9915 730.572 70.9915C729.805 70.9915 729.114 71.2003 728.501 71.6179C727.896 72.0355 727.384 72.6321 726.967 73.4077C726.558 74.1832 726.268 75.108 726.097 76.1818ZM741.365 86L744.637 66.3636H750.71L750.109 69.9432H750.314C750.885 68.6477 751.63 67.6847 752.551 67.054C753.471 66.4148 754.468 66.0952 755.542 66.0952C755.832 66.0952 756.122 66.1165 756.412 66.1591C756.71 66.1932 756.991 66.2443 757.255 66.3125L756.335 71.7585C756.045 71.6477 755.666 71.5668 755.197 71.5156C754.728 71.456 754.302 71.4261 753.919 71.4261C753.177 71.4261 752.487 71.5923 751.848 71.9247C751.217 72.2486 750.68 72.7045 750.237 73.2926C749.802 73.8722 749.517 74.554 749.38 75.3381L747.616 86H741.365ZM771.788 66.3636L771.008 70.9659H758.62L759.4 66.3636H771.788ZM762.762 61.6591H769.013L765.996 79.8253C765.937 80.2088 765.945 80.5199 766.022 80.7585C766.107 80.9886 766.261 81.1548 766.482 81.2571C766.712 81.3509 766.994 81.3977 767.326 81.3977C767.556 81.3977 767.812 81.3722 768.093 81.321C768.374 81.2699 768.587 81.2315 768.732 81.206L768.937 85.7188C768.604 85.8125 768.157 85.919 767.594 86.0384C767.04 86.1662 766.393 86.2472 765.651 86.2812C764.151 86.3409 762.911 86.1662 761.931 85.7571C760.96 85.3395 760.273 84.6918 759.873 83.8139C759.481 82.9361 759.404 81.8366 759.643 80.5156L762.762 61.6591ZM780.609 86.3707C778.538 86.3707 776.829 85.9446 775.482 85.0923C774.144 84.2401 773.207 83.0554 772.67 81.5384C772.133 80.0128 772.035 78.2486 772.376 76.2457C772.7 74.2344 773.386 72.4702 774.434 70.9531C775.482 69.4276 776.82 68.2386 778.448 67.3864C780.076 66.5341 781.917 66.108 783.971 66.108C785.786 66.108 787.312 66.4361 788.548 67.0923C789.792 67.7486 790.691 68.6776 791.245 69.8793C791.808 71.0724 791.974 72.4744 791.744 74.0852H785.901C785.952 73.0881 785.748 72.304 785.288 71.733C784.827 71.1534 784.158 70.8636 783.281 70.8636C782.539 70.8636 781.857 71.0682 781.235 71.4773C780.621 71.8778 780.097 72.4744 779.663 73.267C779.237 74.0511 778.93 75.0227 778.742 76.1818C778.555 77.3409 778.542 78.321 778.704 79.1222C778.874 79.9148 779.194 80.5156 779.663 80.9247C780.14 81.3253 780.745 81.5256 781.478 81.5256C782.058 81.5256 782.594 81.402 783.089 81.1548C783.583 80.9077 784.013 80.5455 784.38 80.0682C784.746 79.5824 785.032 78.9943 785.237 78.304H791.066C790.734 79.9318 790.09 81.3509 789.136 82.5611C788.19 83.7628 786.992 84.7003 785.543 85.3736C784.094 86.0384 782.45 86.3707 780.609 86.3707Z" fill="white"/>
</svg>
